<svg height="512pt" viewBox="0 0 512 512" width="512pt" xmlns="http://www.w3.org/2000/svg"><path d="m512 256c0 141.386719-114.613281 256-256 256s-256-114.613281-256-256 114.613281-256 256-256 256 114.613281 256 256zm0 0" fill="#fe3e2e"/><path d="m510.929688 279.363281-216.710938-216.710937 29.6875 186.617187-126.859375-126.859375-76 292.472656 93.8125 93.8125c13.394531 2.160157 27.132813 3.304688 41.140625 3.304688 133.507812 0 243.125-102.203125 254.929688-232.636719zm0 0" fill="#ec2020"/><path d="m429.773438 306.652344c0 74.867187-60.6875 135.558594-135.554688 135.558594s-135.554688-60.691407-135.554688-135.558594c0-74.863282 135.554688-244 135.554688-244s135.554688 169.136718 135.554688 244zm0 0" fill="#ffe861"/><path d="m294.21875 442.210938c74.867188 0 135.554688-60.691407 135.554688-135.558594 0-74.863282-135.554688-244-135.554688-244zm0 0" fill="#f7d900"/><path d="m384.007812 346.011719c0 49.589843-40.199218 89.789062-89.789062 89.789062s-89.789062-40.199219-89.789062-89.789062c0-49.589844 89.789062-161.621094 89.789062-161.621094s89.789062 112.03125 89.789062 161.621094zm0 0" fill="#fe9a35"/><path d="m294.21875 435.800781c49.589844 0 89.789062-40.199219 89.789062-89.789062 0-49.589844-89.789062-161.621094-89.789062-161.621094zm0 0" fill="#ff7c11"/><path d="m311.78125 328.933594c0 63.363281-51.371094 114.734375-114.734375 114.734375-63.367187 0-114.738281-51.371094-114.738281-114.734375 0-63.367188 114.738281-206.523438 114.738281-206.523438s114.734375 143.15625 114.734375 206.523438zm0 0" fill="#ffde1f"/><path d="m197.046875 443.667969c63.363281 0 114.734375-51.371094 114.734375-114.734375 0-63.367188-114.734375-206.523438-114.734375-206.523438zm0 0" fill="#f9c41e"/><path d="m273.042969 362.246094c0 41.972656-34.023438 75.996094-75.996094 75.996094-41.976563 0-76-34.023438-76-75.996094s76-136.796875 76-136.796875 75.996094 94.824219 75.996094 136.796875zm0 0" fill="#fe9a35"/><path d="m197.046875 438.242188c41.96875 0 75.996094-34.023438 75.996094-75.996094s-75.996094-136.796875-75.996094-136.796875zm0 0" fill="#ff7c11"/></svg>