<svg height="512pt" viewBox="0 0 512 512" width="512pt" xmlns="http://www.w3.org/2000/svg"><path d="m512 256c0 141.386719-114.613281 256-256 256s-256-114.613281-256-256 114.613281-256 256-256 256 114.613281 256 256zm0 0" fill="#3570d8"/><path d="m512 256c0-5.84375-.214844-11.636719-.601562-17.382812l-94.238282-95.292969-24.535156-23.480469-12.113281 24.667969-50.871094-50.871094-11.546875 11.546875-45.09375-45.09375-12.914062 158.820312-107.871094-107.867187-20.90625 68.667969-52.734375 58.882812 63.957031 63.960938-72.757812 3.6875 41.863281 41.859375-16.796875 20.570312 142.652344 142.652344c6.113281.4375 12.285156.671875 18.507812.671875 141.386719 0 256-114.613281 256-256zm0 0" fill="#1450a8"/><path d="m442.226562 306.242188-8.800781-32.839844-77.371093 20.734375-32.3125-18.65625c1.78125-6.191407 2.757812-12.722657 2.757812-19.480469s-.976562-13.285156-2.757812-19.480469l32.308593-18.652343 77.378907 20.730468 8.796874-32.839844-44.53125-11.933593 36.464844-21.054688-17-29.445312-36.464844 21.054687 11.933594-44.535156-32.84375-8.796875-20.730468 77.375-32.347657 18.671875c-9.050781-9.378906-20.660156-16.265625-33.707031-19.507812v-37.300782l56.644531-56.640625-24.042969-24.042969-32.601562 32.601563v-42.109375h-34v42.105469l-32.601562-32.597657-24.039063 24.039063 56.640625 56.644531v37.300782c-13.042969 3.238281-24.652344 10.132812-33.703125 19.507812l-32.347656-18.671875-20.734375-77.375-32.839844 8.796875 11.933594 44.535156-36.46875-21.054687-17 29.445312 36.464844 21.054688-44.53125 11.933593 8.800781 32.839844 77.371093-20.734375 32.308594 18.652344c-1.785156 6.191406-2.753906 12.726563-2.753906 19.484375s.976562 13.289062 2.757812 19.480469l-32.308593 18.65625-77.378907-20.734375-8.796874 32.839844 44.53125 11.933593-36.464844 21.054688 17 29.445312 36.46875-21.054687-11.933594 44.535156 32.839844 8.800781 20.734375-77.375 32.34375-18.675781c9.050781 9.378906 20.664062 16.265625 33.707031 19.507812v37.300782l-56.640625 56.644531 24.039063 24.039063 32.601562-32.597657v42.105469h34v-42.105469l32.601562 32.597657 24.042969-24.039063-56.644531-56.644531v-37.308594c13.039062-3.25 24.65625-10.121094 33.707031-19.5l32.34375 18.671875 20.734375 77.375 32.839844-8.800781-11.933594-44.53125 36.46875 21.054687 17-29.445312-36.464844-21.054688zm-186.226562-13.742188c-20.125 0-36.5-16.375-36.5-36.5s16.375-36.5 36.5-36.5 36.5 16.375 36.5 36.5-16.375 36.5-36.5 36.5zm0 0" fill="#cdeffe"/><path d="m442.226562 306.242188-8.800781-32.839844-77.371093 20.734375-32.3125-18.65625c1.78125-6.191407 2.757812-12.722657 2.757812-19.480469s-.976562-13.285156-2.757812-19.480469l32.308593-18.652343 77.378907 20.730468 8.796874-32.839844-44.53125-11.933593 36.464844-21.054688-17-29.445312-36.464844 21.054687 11.933594-44.535156-32.84375-8.796875-20.730468 77.375-32.347657 18.671875c-9.050781-9.378906-20.660156-16.265625-33.707031-19.507812v-37.300782l56.644531-56.640625-24.042969-24.042969-32.601562 32.601563v-42.109375h-17.285156v159.414062c.09375 0 .1875-.007812.285156-.007812 20.125 0 36.5 16.375 36.5 36.5s-16.375 36.5-36.5 36.5c-.097656 0-.191406-.007812-.285156-.007812v159.414062h17.285156v-42.105469l32.601562 32.597657 24.042969-24.039063-56.644531-56.644531v-37.308594c13.039062-3.25 24.65625-10.121094 33.707031-19.5l32.34375 18.671875 20.734375 77.375 32.839844-8.800781-11.933594-44.53125 36.46875 21.054687 17-29.445312-36.464844-21.054688zm0 0" fill="#94def7"/></svg>
